<svg width="1440" height="178" viewBox="0 0 1440 178" fill="none" xmlns="http://www.w3.org/2000/svg">
<g clip-path="url(#clip0_1_3)">
<rect width="1440" height="178" rx="89" fill="#010409"/>
<path d="M283.669 122L271.758 62.3589H279.768L288.235 108.511L289.729 116.854L291.306 108.636L301.433 64.8906H312.722L322.891 108.677L324.509 116.854L326.003 108.511L334.387 62.3589H342.231L330.486 122H319.031L309.734 82.8618L307.036 69.6221L304.421 82.9033L295.125 122H283.669ZM379.419 120.755C378.451 121.115 377.344 121.447 376.099 121.751C375.047 122 373.816 122.221 372.405 122.415C370.994 122.636 369.444 122.747 367.756 122.747C354.309 122.747 347.585 115.567 347.585 101.207C347.585 97.1945 348.056 93.805 348.997 91.0381C349.937 88.2435 351.238 85.9331 352.898 84.1069C354.558 82.2808 356.523 80.925 358.792 80.0396C361.06 79.1541 363.509 78.7114 366.138 78.7114C369.569 78.7114 372.446 79.4032 374.771 80.7866C377.095 82.1701 378.852 83.9963 380.042 86.2651C381.259 88.5063 381.895 90.9136 381.951 93.4868C381.951 94.2339 381.909 95.1746 381.826 96.3091C381.771 97.4159 381.688 98.4673 381.577 99.4634C381.494 100.432 381.397 101.082 381.287 101.414H355.513V102.908C355.513 106.478 356.052 109.286 357.131 111.333C358.21 113.381 359.705 114.834 361.614 115.691C363.551 116.521 365.778 116.937 368.296 116.937C369.873 116.937 371.367 116.854 372.778 116.688C374.217 116.494 375.49 116.286 376.597 116.065C377.897 115.816 379.101 115.525 380.208 115.193L379.419 120.755ZM366.304 84.3975C365.003 84.3975 363.744 84.605 362.527 85.02C361.337 85.4074 360.258 86.0715 359.29 87.0122C358.321 87.953 357.505 89.1981 356.841 90.7476C356.204 92.2694 355.803 94.2754 355.637 96.7656H375.269C375.269 96.2399 375.282 95.894 375.31 95.728C375.338 95.5897 375.352 95.3683 375.352 95.064V94.4414C375.241 90.9274 374.342 88.3818 372.654 86.8047C370.966 85.1999 368.849 84.3975 366.304 84.3975ZM391.995 122V63.106L399.631 62.3589V122H391.995ZM428.933 122.747C426.637 122.747 424.395 122.387 422.209 121.668C420.024 120.949 418.073 119.745 416.357 118.057C414.614 116.342 413.217 114.073 412.166 111.25C411.114 108.428 410.588 105.011 410.588 100.999C410.588 98.1768 410.824 95.6589 411.294 93.4453C411.792 91.2041 412.47 89.2534 413.328 87.5933C414.158 85.9054 415.154 84.5081 416.316 83.4014C418.087 81.6859 420.024 80.4823 422.126 79.7905C424.257 79.0711 426.457 78.7114 428.726 78.7114C430.552 78.7114 432.212 78.8359 433.706 79.085C435.2 79.3063 436.487 79.5692 437.566 79.8735C438.894 80.2056 440.028 80.5929 440.969 81.0356L441.592 86.6387C441.066 86.445 440.499 86.2651 439.89 86.0991C439.309 85.9054 438.7 85.7394 438.064 85.6011C436.985 85.3521 435.74 85.1169 434.329 84.8955C432.917 84.6742 431.423 84.5635 429.846 84.5635C426.028 84.5635 423.206 85.8224 421.379 88.3403C420.439 89.6685 419.705 91.3701 419.18 93.4453C418.682 95.5205 418.433 97.9969 418.433 100.875C418.433 106.381 419.415 110.476 421.379 113.16C422.348 114.488 423.538 115.456 424.949 116.065C426.36 116.646 427.992 116.937 429.846 116.937C431.423 116.937 432.917 116.84 434.329 116.646C435.767 116.425 437.026 116.189 438.105 115.94C439.351 115.664 440.527 115.332 441.633 114.944L440.969 120.464C440.056 120.879 438.936 121.267 437.607 121.626C436.556 121.931 435.283 122.194 433.789 122.415C432.323 122.636 430.704 122.747 428.933 122.747ZM466.453 122.747C462.192 122.747 458.664 121.82 455.869 119.966C453.075 118.112 450.999 115.539 449.644 112.247C448.288 108.954 447.61 105.149 447.61 100.833C447.61 94.1094 449.146 88.7415 452.217 84.7295C455.316 80.7174 460.061 78.7114 466.453 78.7114C472.817 78.7114 477.534 80.7174 480.605 84.7295C483.704 88.7415 485.254 94.1094 485.254 100.833C485.254 105.149 484.576 108.954 483.22 112.247C481.864 115.539 479.789 118.112 476.995 119.966C474.228 121.82 470.714 122.747 466.453 122.747ZM466.453 116.937C468.528 116.937 470.271 116.549 471.682 115.774C473.121 115 474.269 113.893 475.127 112.454C476.012 111.015 476.635 109.3 476.995 107.308C477.354 105.288 477.534 103.102 477.534 100.75C477.534 95.6312 476.718 91.6606 475.085 88.8384C473.453 86.0161 470.575 84.605 466.453 84.605C464.377 84.605 462.634 84.9647 461.223 85.6841C459.84 86.3758 458.705 87.4134 457.82 88.7969C456.962 90.1527 456.34 91.8405 455.952 93.8604C455.565 95.8525 455.371 98.1491 455.371 100.75C455.371 103.102 455.565 105.288 455.952 107.308C456.34 109.3 456.962 111.015 457.82 112.454C458.705 113.893 459.84 115 461.223 115.774C462.634 116.549 464.377 116.937 466.453 116.937ZM496.252 122V79.4585L501.606 78.9604L502.727 83.7334C504.941 82.1009 507.251 80.8558 509.658 79.998C512.093 79.1403 514.694 78.7114 517.461 78.7114C520.228 78.7114 522.4 79.168 523.977 80.0811C525.582 80.9665 526.702 82.2254 527.339 83.8579C529.137 82.3638 531.213 81.1325 533.564 80.1641C535.916 79.1956 538.808 78.7114 542.239 78.7114C546.168 78.7114 549.059 80.0949 550.913 82.8618C552.767 85.6011 553.694 89.7653 553.694 95.3545V122H545.974V98.6748C545.974 96.1292 545.877 93.9572 545.684 92.1587C545.518 90.3602 545.199 88.9076 544.729 87.8008C543.871 85.6702 542.28 84.605 539.956 84.605C538.739 84.605 537.327 84.8263 535.723 85.269C534.118 85.6841 532.638 86.196 531.282 86.8047C529.926 87.4134 528.999 87.9668 528.501 88.4648L528.792 90.7061C528.875 91.5085 528.944 92.5322 528.999 93.7773C529.082 94.9948 529.124 96.4751 529.124 98.2183V122H521.404V97.2222C521.404 92.2417 521.016 88.866 520.242 87.0952C519.827 86.1268 519.259 85.4766 518.54 85.1445C517.848 84.7848 516.977 84.605 515.925 84.605C513.49 84.605 511.222 85.0477 509.119 85.9331C507.043 86.8185 505.314 87.6624 503.931 88.4648V122H496.252ZM596.152 120.755C595.184 121.115 594.077 121.447 592.832 121.751C591.781 122 590.549 122.221 589.138 122.415C587.727 122.636 586.178 122.747 584.49 122.747C571.042 122.747 564.319 115.567 564.319 101.207C564.319 97.1945 564.789 93.805 565.73 91.0381C566.671 88.2435 567.971 85.9331 569.631 84.1069C571.292 82.2808 573.256 80.925 575.525 80.0396C577.794 79.1541 580.243 78.7114 582.871 78.7114C586.302 78.7114 589.18 79.4032 591.504 80.7866C593.828 82.1701 595.585 83.9963 596.775 86.2651C597.992 88.5063 598.629 90.9136 598.684 93.4868C598.684 94.2339 598.643 95.1746 598.56 96.3091C598.504 97.4159 598.421 98.4673 598.311 99.4634C598.228 100.432 598.131 101.082 598.02 101.414H572.246V102.908C572.246 106.478 572.786 109.286 573.865 111.333C574.944 113.381 576.438 114.834 578.347 115.691C580.284 116.521 582.511 116.937 585.029 116.937C586.606 116.937 588.101 116.854 589.512 116.688C590.951 116.494 592.223 116.286 593.33 116.065C594.631 115.816 595.834 115.525 596.941 115.193L596.152 120.755ZM583.037 84.3975C581.737 84.3975 580.478 84.605 579.26 85.02C578.07 85.4074 576.991 86.0715 576.023 87.0122C575.055 87.953 574.238 89.1981 573.574 90.7476C572.938 92.2694 572.537 94.2754 572.371 96.7656H592.002C592.002 96.2399 592.016 95.894 592.043 95.728C592.071 95.5897 592.085 95.3683 592.085 95.064V94.4414C591.974 90.9274 591.075 88.3818 589.387 86.8047C587.699 85.1999 585.583 84.3975 583.037 84.3975ZM611.177 107.266C611.121 106.298 611.038 105.177 610.928 103.904C610.845 102.604 610.748 101.165 610.637 99.5879C610.444 96.904 610.208 93.4453 609.932 89.2119C609.655 84.9508 609.323 79.8044 608.936 73.7725C608.936 73.2191 608.908 72.0431 608.853 70.2446C608.825 68.4185 608.783 66.2464 608.728 63.7285H617.195C617.167 66.2464 617.126 68.4185 617.07 70.2446C617.015 72.0431 616.987 73.2191 616.987 73.7725C616.6 79.8044 616.268 84.9508 615.991 89.2119C615.715 93.4453 615.479 96.904 615.286 99.5879C615.175 101.165 615.064 102.604 614.954 103.904C614.871 105.177 614.801 106.298 614.746 107.266H611.177ZM609.351 122.581V115.152H616.614V122.581H609.351ZM673.931 122.996C670.583 122.996 667.47 122.526 664.592 121.585C661.715 120.617 659.211 118.929 657.08 116.521C654.95 114.114 653.262 110.891 652.017 106.851C650.799 102.784 650.177 97.7756 650.149 91.8267C650.149 86.0715 650.771 81.2432 652.017 77.3418C653.262 73.4404 654.977 70.2861 657.163 67.8789C659.377 65.4993 661.978 63.7977 664.966 62.7739C667.954 61.7502 671.219 61.2383 674.761 61.2383C677.002 61.2383 679.077 61.3766 680.986 61.6533C682.923 61.9023 684.597 62.179 686.008 62.4834C686.838 62.6771 687.627 62.8708 688.374 63.0645C689.121 63.2581 689.827 63.4657 690.491 63.687L691.155 70.1201C689.827 69.6221 688.305 69.1655 686.589 68.7505C685.178 68.4461 683.532 68.1556 681.65 67.8789C679.769 67.6022 677.763 67.4639 675.632 67.4639C672.948 67.4639 670.541 67.8789 668.411 68.709C666.28 69.5391 664.468 70.8949 662.974 72.7764C661.479 74.6579 660.331 77.1343 659.529 80.2056C658.754 83.2492 658.367 87.0952 658.367 91.7437C658.422 100.625 659.806 107.045 662.517 111.001C663.901 113.021 665.616 114.488 667.664 115.401C669.711 116.314 672.104 116.757 674.844 116.729C677.14 116.757 679.271 116.632 681.235 116.355C683.2 116.051 684.929 115.678 686.423 115.235C688.139 114.764 689.716 114.266 691.155 113.741L690.449 120.215C689.176 120.713 687.641 121.184 685.842 121.626C684.376 121.986 682.633 122.304 680.613 122.581C678.593 122.858 676.366 122.996 673.931 122.996ZM732.078 112.828C732.078 114.432 732.244 115.429 732.576 115.816C732.908 116.176 733.572 116.355 734.568 116.355C734.872 116.355 735.19 116.355 735.522 116.355C735.882 116.328 736.2 116.314 736.477 116.314L735.896 121.917C735.896 121.917 735.592 121.931 734.983 121.958C734.402 121.986 733.752 122.014 733.032 122.042C732.313 122.097 731.732 122.125 731.289 122.125C729.712 122.125 728.467 121.82 727.554 121.211C726.641 120.575 725.99 119.869 725.603 119.095C725.216 118.292 725.022 117.642 725.022 117.144C724.441 117.946 723.569 118.79 722.407 119.676C721.245 120.534 719.682 121.267 717.717 121.875C715.753 122.457 713.263 122.747 710.247 122.747C706.567 122.747 703.578 121.654 701.282 119.468C699.013 117.255 697.878 114.294 697.878 110.586C697.878 107.266 698.792 104.734 700.618 102.991C702.444 101.248 704.81 100.058 707.715 99.4219C710.62 98.7578 713.678 98.4258 716.887 98.4258C717.856 98.4258 718.796 98.4673 719.709 98.5503C720.623 98.6056 721.439 98.661 722.158 98.7163L724.441 99.0483V94.3584C724.441 91.3978 724.137 89.1981 723.528 87.7593C722.919 86.2928 721.909 85.3244 720.498 84.854C719.115 84.3836 717.233 84.1484 714.854 84.1484C712.087 84.1484 709.527 84.439 707.175 85.02C704.851 85.5734 702.873 86.1683 701.24 86.8047L702.07 80.6621C703.371 80.1087 705.086 79.583 707.217 79.085C709.347 78.5592 712.087 78.2964 715.435 78.2964C719.917 78.2964 723.362 78.8913 725.769 80.0811C728.176 81.2708 729.823 83.2077 730.708 85.8916C731.621 88.5755 732.078 92.1587 732.078 96.6411V112.828ZM718.132 103.199C716.915 103.199 715.545 103.268 714.023 103.406C712.502 103.517 711.049 103.821 709.666 104.319C708.282 104.79 707.134 105.551 706.221 106.602C705.335 107.626 704.893 109.051 704.893 110.877C704.893 113.007 705.57 114.585 706.926 115.608C708.31 116.632 710.26 117.144 712.778 117.144C715.601 117.144 717.966 116.757 719.875 115.982C721.812 115.18 723.334 114.363 724.441 113.533V103.448L722.407 103.323L718.132 103.199ZM745.857 122V63.106L753.494 62.3589V122H745.857ZM766.609 122V63.106L774.246 62.3589V122H766.609ZM808.611 122V79.4585L813.965 78.9604L815.085 83.7334C817.299 82.1009 819.609 80.8558 822.017 79.998C824.451 79.1403 827.052 78.7114 829.819 78.7114C832.586 78.7114 834.758 79.168 836.335 80.0811C837.94 80.9665 839.061 82.2254 839.697 83.8579C841.496 82.3638 843.571 81.1325 845.923 80.1641C848.275 79.1956 851.166 78.7114 854.597 78.7114C858.526 78.7114 861.418 80.0949 863.271 82.8618C865.125 85.6011 866.052 89.7653 866.052 95.3545V122H858.333V98.6748C858.333 96.1292 858.236 93.9572 858.042 92.1587C857.876 90.3602 857.558 88.9076 857.087 87.8008C856.23 85.6702 854.639 84.605 852.314 84.605C851.097 84.605 849.686 84.8263 848.081 85.269C846.476 85.6841 844.996 86.196 843.64 86.8047C842.284 87.4134 841.357 87.9668 840.859 88.4648L841.15 90.7061C841.233 91.5085 841.302 92.5322 841.357 93.7773C841.44 94.9948 841.482 96.4751 841.482 98.2183V122H833.762V97.2222C833.762 92.2417 833.375 88.866 832.6 87.0952C832.185 86.1268 831.618 85.4766 830.898 85.1445C830.207 84.7848 829.335 84.605 828.284 84.605C825.849 84.605 823.58 85.0477 821.477 85.9331C819.402 86.8185 817.673 87.6624 816.289 88.4648V122H808.611ZM908.511 120.755C907.542 121.115 906.436 121.447 905.19 121.751C904.139 122 902.908 122.221 901.497 122.415C900.085 122.636 898.536 122.747 896.848 122.747C883.401 122.747 876.677 115.567 876.677 101.207C876.677 97.1945 877.148 93.805 878.088 91.0381C879.029 88.2435 880.33 85.9331 881.99 84.1069C883.65 82.2808 885.614 80.925 887.883 80.0396C890.152 79.1541 892.601 78.7114 895.229 78.7114C898.66 78.7114 901.538 79.4032 903.862 80.7866C906.187 82.1701 907.944 83.9963 909.133 86.2651C910.351 88.5063 910.987 90.9136 911.042 93.4868C911.042 94.2339 911.001 95.1746 910.918 96.3091C910.863 97.4159 910.78 98.4673 910.669 99.4634C910.586 100.432 910.489 101.082 910.378 101.414H884.604V102.908C884.604 106.478 885.144 109.286 886.223 111.333C887.302 113.381 888.796 114.834 890.706 115.691C892.642 116.521 894.87 116.937 897.388 116.937C898.965 116.937 900.459 116.854 901.87 116.688C903.309 116.494 904.582 116.286 905.688 116.065C906.989 115.816 908.193 115.525 909.299 115.193L908.511 120.755ZM895.396 84.3975C894.095 84.3975 892.836 84.605 891.619 85.02C890.429 85.4074 889.35 86.0715 888.381 87.0122C887.413 87.953 886.597 89.1981 885.933 90.7476C885.296 92.2694 884.895 94.2754 884.729 96.7656H904.36C904.36 96.2399 904.374 95.894 904.402 95.728C904.43 95.5897 904.443 95.3683 904.443 95.064V94.4414C904.333 90.9274 903.433 88.3818 901.746 86.8047C900.058 85.1999 897.941 84.3975 895.396 84.3975ZM1158.78 107.266C1158.72 106.298 1158.64 105.177 1158.53 103.904C1158.45 102.604 1158.35 101.165 1158.24 99.5879C1158.05 96.904 1157.81 93.4453 1157.53 89.2119C1157.26 84.9508 1156.93 79.8044 1156.54 73.7725C1156.54 73.2191 1156.51 72.0431 1156.46 70.2446C1156.43 68.4185 1156.39 66.2464 1156.33 63.7285H1164.8C1164.77 66.2464 1164.73 68.4185 1164.67 70.2446C1164.62 72.0431 1164.59 73.2191 1164.59 73.7725C1164.2 79.8044 1163.87 84.9508 1163.59 89.2119C1163.32 93.4453 1163.08 96.904 1162.89 99.5879C1162.78 101.165 1162.67 102.604 1162.56 103.904C1162.47 105.177 1162.4 106.298 1162.35 107.266H1158.78ZM1156.95 122.581V115.152H1164.22V122.581H1156.95Z" fill="white"/>
<path d="M943.291 122V62.3589H959.685C967.349 62.3589 972.786 63.5625 975.996 65.9697C979.15 68.3216 980.728 72.3337 980.728 78.0059C980.728 80.1087 980.326 81.9072 979.524 83.4014C978.749 84.8955 977.781 86.1406 976.619 87.1367C975.401 88.1882 974.17 88.9076 972.925 89.2949C971.707 89.6823 970.767 89.9036 970.103 89.959C972.703 90.1803 974.945 90.8306 976.826 91.9097C977.656 92.38 978.486 92.9749 979.316 93.6943C980.146 94.4137 980.866 95.2715 981.475 96.2676C982.111 97.2913 982.609 98.495 982.969 99.8784C983.356 101.262 983.55 102.894 983.55 104.776C983.55 110.725 981.82 115.083 978.362 117.85C974.931 120.617 969.757 122 962.839 122H943.291ZM950.803 87.7593H960.474C962.853 87.7593 964.859 87.5379 966.492 87.0952C968.124 86.6248 969.438 85.9746 970.435 85.1445C972.316 83.5674 973.257 81.0771 973.257 77.6738C973.257 75.737 972.98 74.2013 972.427 73.0669C971.901 71.9048 971.057 70.9779 969.895 70.2861C967.626 69.0133 963.877 68.377 958.647 68.377H950.803V87.7593ZM950.803 116.023H960.847C963.365 116.023 965.579 115.871 967.488 115.567C969.425 115.235 971.029 114.681 972.302 113.907C973.575 113.104 974.53 111.984 975.166 110.545C975.83 109.078 976.162 107.128 976.162 104.693C976.162 102.369 975.858 100.473 975.249 99.0068C974.64 97.5127 973.7 96.3229 972.427 95.4375C971.154 94.5521 969.549 93.9295 967.612 93.5698C965.675 93.2101 963.379 93.0303 960.723 93.0303H950.803V116.023ZM1025.1 112.828C1025.1 114.432 1025.26 115.429 1025.59 115.816C1025.93 116.176 1026.59 116.355 1027.59 116.355C1027.89 116.355 1028.21 116.355 1028.54 116.355C1028.9 116.328 1029.22 116.314 1029.49 116.314L1028.91 121.917C1028.91 121.917 1028.61 121.931 1028 121.958C1027.42 121.986 1026.77 122.014 1026.05 122.042C1025.33 122.097 1024.75 122.125 1024.31 122.125C1022.73 122.125 1021.48 121.82 1020.57 121.211C1019.66 120.575 1019.01 119.869 1018.62 119.095C1018.23 118.292 1018.04 117.642 1018.04 117.144C1017.46 117.946 1016.59 118.79 1015.42 119.676C1014.26 120.534 1012.7 121.267 1010.73 121.875C1008.77 122.457 1006.28 122.747 1003.26 122.747C999.584 122.747 996.596 121.654 994.299 119.468C992.03 117.255 990.896 114.294 990.896 110.586C990.896 107.266 991.809 104.734 993.635 102.991C995.461 101.248 997.827 100.058 1000.73 99.4219C1003.64 98.7578 1006.7 98.4258 1009.9 98.4258C1010.87 98.4258 1011.81 98.4673 1012.73 98.5503C1013.64 98.6056 1014.46 98.661 1015.18 98.7163L1017.46 99.0483V94.3584C1017.46 91.3978 1017.15 89.1981 1016.55 87.7593C1015.94 86.2928 1014.93 85.3244 1013.52 84.854C1012.13 84.3836 1010.25 84.1484 1007.87 84.1484C1005.1 84.1484 1002.54 84.439 1000.19 85.02C997.869 85.5734 995.89 86.1683 994.258 86.8047L995.088 80.6621C996.388 80.1087 998.104 79.583 1000.23 79.085C1002.36 78.5592 1005.1 78.2964 1008.45 78.2964C1012.93 78.2964 1016.38 78.8913 1018.79 80.0811C1021.19 81.2708 1022.84 83.2077 1023.73 85.8916C1024.64 88.5755 1025.1 92.1587 1025.1 96.6411V112.828ZM1011.15 103.199C1009.93 103.199 1008.56 103.268 1007.04 103.406C1005.52 103.517 1004.07 103.821 1002.68 104.319C1001.3 104.79 1000.15 105.551 999.238 106.602C998.353 107.626 997.91 109.051 997.91 110.877C997.91 113.007 998.588 114.585 999.944 115.608C1001.33 116.632 1003.28 117.144 1005.8 117.144C1008.62 117.144 1010.98 116.757 1012.89 115.982C1014.83 115.18 1016.35 114.363 1017.46 113.533V103.448L1015.42 103.323L1011.15 103.199ZM1035.8 122V115.65L1057.88 84.8125L1048.01 85.02H1036.51V79.2095H1064.65L1065.98 85.1445L1043.65 116.438L1051.45 116.272H1065.48V122H1035.8ZM1072.24 122V115.65L1094.32 84.8125L1084.45 85.02H1072.95V79.2095H1101.09L1102.42 85.1445L1080.09 116.438L1087.89 116.272H1101.92V122H1072.24ZM1142.55 112.828C1142.55 114.432 1142.72 115.429 1143.05 115.816C1143.38 116.176 1144.05 116.355 1145.04 116.355C1145.35 116.355 1145.66 116.355 1146 116.355C1146.36 116.328 1146.67 116.314 1146.95 116.314L1146.37 121.917C1146.37 121.917 1146.07 121.931 1145.46 121.958C1144.88 121.986 1144.23 122.014 1143.51 122.042C1142.79 122.097 1142.21 122.125 1141.76 122.125C1140.19 122.125 1138.94 121.82 1138.03 121.211C1137.11 120.575 1136.46 119.869 1136.08 119.095C1135.69 118.292 1135.5 117.642 1135.5 117.144C1134.91 117.946 1134.04 118.79 1132.88 119.676C1131.72 120.534 1130.16 121.267 1128.19 121.875C1126.23 122.457 1123.74 122.747 1120.72 122.747C1117.04 122.747 1114.05 121.654 1111.76 119.468C1109.49 117.255 1108.35 114.294 1108.35 110.586C1108.35 107.266 1109.27 104.734 1111.09 102.991C1112.92 101.248 1115.28 100.058 1118.19 99.4219C1121.09 98.7578 1124.15 98.4258 1127.36 98.4258C1128.33 98.4258 1129.27 98.4673 1130.18 98.5503C1131.1 98.6056 1131.91 98.661 1132.63 98.7163L1134.91 99.0483V94.3584C1134.91 91.3978 1134.61 89.1981 1134 87.7593C1133.39 86.2928 1132.38 85.3244 1130.97 84.854C1129.59 84.3836 1127.71 84.1484 1125.33 84.1484C1122.56 84.1484 1120 84.439 1117.65 85.02C1115.32 85.5734 1113.35 86.1683 1111.71 86.8047L1112.54 80.6621C1113.84 80.1087 1115.56 79.583 1117.69 79.085C1119.82 78.5592 1122.56 78.2964 1125.91 78.2964C1130.39 78.2964 1133.84 78.8913 1136.24 80.0811C1138.65 81.2708 1140.3 83.2077 1141.18 85.8916C1142.09 88.5755 1142.55 92.1587 1142.55 96.6411V112.828ZM1128.61 103.199C1127.39 103.199 1126.02 103.268 1124.5 103.406C1122.98 103.517 1121.52 103.821 1120.14 104.319C1118.76 104.79 1117.61 105.551 1116.69 106.602C1115.81 107.626 1115.37 109.051 1115.37 110.877C1115.37 113.007 1116.04 114.585 1117.4 115.608C1118.78 116.632 1120.73 117.144 1123.25 117.144C1126.07 117.144 1128.44 116.757 1130.35 115.982C1132.29 115.18 1133.81 114.363 1134.91 113.533V103.448L1132.88 103.323L1128.61 103.199Z" fill="#1F6FEB"/>
</g>
<defs>
<clipPath id="clip0_1_3">
<rect width="1440" height="178" fill="white"/>
</clipPath>
</defs>
</svg>
